<?xml version="1.0" encoding="UTF-8" standalone="no"?>
<svg
   xmlns:dc="http://purl.org/dc/elements/1.1/"
   xmlns:cc="http://creativecommons.org/ns#"
   xmlns:rdf="http://www.w3.org/1999/02/22-rdf-syntax-ns#"
   xmlns:svg="http://www.w3.org/2000/svg"
   xmlns="http://www.w3.org/2000/svg"
   xmlns:sodipodi="http://sodipodi.sourceforge.net/DTD/sodipodi-0.dtd"
   xmlns:inkscape="http://www.inkscape.org/namespaces/inkscape"
   width="32"
   height="32"
   viewBox="0 0 8.4666659 8.4666659"
   version="1.1"
   id="svg893"
   inkscape:version="1.0.1 (3bc2e813f5, 2020-09-07)"
   sodipodi:docname="damage.svg">
  <defs
     id="defs887" />
  <sodipodi:namedview
     id="base"
     pagecolor="#ffffff"
     bordercolor="#666666"
     borderopacity="1.0"
     inkscape:pageopacity="0.0"
     inkscape:pageshadow="2"
     inkscape:zoom="22.4"
     inkscape:cx="11.013699"
     inkscape:cy="16.813966"
     inkscape:document-units="mm"
     inkscape:current-layer="layer1"
     inkscape:document-rotation="0"
     showgrid="false"
     units="px"
     inkscape:window-width="1920"
     inkscape:window-height="1012"
     inkscape:window-x="0"
     inkscape:window-y="0"
     inkscape:window-maximized="1" />
  <metadata
     id="metadata890">
    <rdf:RDF>
      <cc:Work
         rdf:about="">
        <dc:format>image/svg+xml</dc:format>
        <dc:type
           rdf:resource="http://purl.org/dc/dcmitype/StillImage" />
        <dc:title></dc:title>
      </cc:Work>
    </rdf:RDF>
  </metadata>
  <g
     inkscape:label="Layer 1"
     inkscape:groupmode="layer"
     id="layer1">
    <g
       id="g8"
       transform="scale(0.26458333)">
      <rect
         x="2.0999999"
         y="28.1"
         width="7.0999999"
         height="3.9000001"
         id="rect4" />
      <path
         d="m 9.1,7 c 0,0 0,-0.5 0,-0.7 C 8.6,1.5 5.6,0 5.6,0 c 0,0 -3,1.5 -3.5,6.3 0,0.2 0,0.7 0,0.7 v 18.4 h 3.5 3.5 z"
         id="path6" />
    </g>
    <g
       id="g14"
       transform="scale(0.26458333)">
      <rect
         x="12.5"
         y="28.1"
         width="7.0999999"
         height="3.9000001"
         id="rect10" />
      <path
         d="m 19.5,7 c 0,0 0,-0.5 0,-0.7 C 19,1.5 16,0 16,0 c 0,0 -3,1.5 -3.5,6.3 0,0.2 0,0.7 0,0.7 v 18.4 h 3.5 3.5 z"
         id="path12" />
    </g>
    <g
       id="g20"
       transform="scale(0.26458333)">
      <rect
         x="22.9"
         y="28.1"
         width="7.0999999"
         height="3.9000001"
         id="rect16" />
      <path
         d="m 29.9,7 c 0,0 0,-0.5 0,-0.7 C 29.4,1.5 26.4,0 26.4,0 c 0,0 -3,1.5 -3.5,6.3 0,0.2 0,0.7 0,0.7 v 18.4 h 3.5 3.5 z"
         id="path18" />
    </g>
  </g>
</svg>
