<?xml version="1.0" encoding="UTF-8" standalone="no"?>
<svg
   xmlns:dc="http://purl.org/dc/elements/1.1/"
   xmlns:cc="http://creativecommons.org/ns#"
   xmlns:rdf="http://www.w3.org/1999/02/22-rdf-syntax-ns#"
   xmlns:svg="http://www.w3.org/2000/svg"
   xmlns="http://www.w3.org/2000/svg"
   xmlns:sodipodi="http://sodipodi.sourceforge.net/DTD/sodipodi-0.dtd"
   xmlns:inkscape="http://www.inkscape.org/namespaces/inkscape"
   width="32"
   height="32"
   viewBox="0 0 8.4666659 8.4666659"
   version="1.1"
   id="svg893"
   inkscape:version="1.0.1 (3bc2e813f5, 2020-09-07)"
   sodipodi:docname="support.svg">
  <defs
     id="defs887" />
  <sodipodi:namedview
     id="base"
     pagecolor="#ffffff"
     bordercolor="#666666"
     borderopacity="1.0"
     inkscape:pageopacity="0.0"
     inkscape:pageshadow="2"
     inkscape:zoom="22.4"
     inkscape:cx="11.013699"
     inkscape:cy="16.813966"
     inkscape:document-units="mm"
     inkscape:current-layer="layer1"
     inkscape:document-rotation="0"
     showgrid="false"
     units="px"
     inkscape:window-width="1920"
     inkscape:window-height="1012"
     inkscape:window-x="0"
     inkscape:window-y="0"
     inkscape:window-maximized="1" />
  <metadata
     id="metadata890">
    <rdf:RDF>
      <cc:Work
         rdf:about="">
        <dc:format>image/svg+xml</dc:format>
        <dc:type
           rdf:resource="http://purl.org/dc/dcmitype/StillImage" />
        <dc:title></dc:title>
      </cc:Work>
    </rdf:RDF>
  </metadata>
  <g
     inkscape:label="Layer 1"
     inkscape:groupmode="layer"
     id="layer1">
    <path
       fill-rule="evenodd"
       d="M 7.7390625,2.6855208 H 5.7546875 V 0.70114582 c 0,-0.396875 -0.3175,-0.714375 -0.714375,-0.714375 h -1.666875 c -0.396875,0 -0.714375,0.3175 -0.714375,0.714375 V 2.6855208 H 0.70114584 c -0.396875,0 -0.714375,0.3175 -0.714375,0.714375 v 1.666875 c 0,0.396875 0.3175,0.714375 0.714375,0.714375 H 2.6855208 v 1.984375 c 0,0.396875 0.3175,0.714375 0.714375,0.714375 h 1.666875 c 0.396875,0 0.714375,-0.3175 0.714375,-0.714375 v -1.984375 h 1.984375 c 0.396875,0 0.714375,-0.3175 0.714375,-0.714375 V 3.3998958 C 8.4534375,3.0030208 8.1359375,2.6855208 7.7390625,2.6855208 Z"
       id="path4"
       style="stroke-width:0.264583" />
  </g>
</svg>
