<?xml version="1.0" encoding="UTF-8" standalone="no"?>
<svg
   xmlns:dc="http://purl.org/dc/elements/1.1/"
   xmlns:cc="http://creativecommons.org/ns#"
   xmlns:rdf="http://www.w3.org/1999/02/22-rdf-syntax-ns#"
   xmlns:svg="http://www.w3.org/2000/svg"
   xmlns="http://www.w3.org/2000/svg"
   xmlns:sodipodi="http://sodipodi.sourceforge.net/DTD/sodipodi-0.dtd"
   xmlns:inkscape="http://www.inkscape.org/namespaces/inkscape"
   width="32"
   height="32"
   viewBox="0 0 8.4666659 8.4666659"
   version="1.1"
   id="svg893"
   inkscape:version="1.0.1 (3bc2e813f5, 2020-09-07)"
   sodipodi:docname="tank.svg">
  <defs
     id="defs887" />
  <sodipodi:namedview
     id="base"
     pagecolor="#ffffff"
     bordercolor="#666666"
     borderopacity="1.0"
     inkscape:pageopacity="0.0"
     inkscape:pageshadow="2"
     inkscape:zoom="22.4"
     inkscape:cx="11.013699"
     inkscape:cy="16.813966"
     inkscape:document-units="mm"
     inkscape:current-layer="layer1"
     inkscape:document-rotation="0"
     showgrid="false"
     units="px"
     inkscape:window-width="1920"
     inkscape:window-height="1012"
     inkscape:window-x="0"
     inkscape:window-y="0"
     inkscape:window-maximized="1" />
  <metadata
     id="metadata890">
    <rdf:RDF>
      <cc:Work
         rdf:about="">
        <dc:format>image/svg+xml</dc:format>
        <dc:type
           rdf:resource="http://purl.org/dc/dcmitype/StillImage" />
        <dc:title></dc:title>
      </cc:Work>
    </rdf:RDF>
  </metadata>
  <g
     inkscape:label="Layer 1"
     inkscape:groupmode="layer"
     id="layer1">
    <path
       d="m 7.6601225,2.8310417 c 0,0.555625 0,1.0847916 0,1.6404166 0,0.15875 -0.026458,0.2910417 -0.1058334,0.4233334 -0.7672916,1.4022916 -1.7991666,2.5664583 -3.1220833,3.4925 -0.15875,0.1058333 -0.2645833,0.1058333 -0.4233333,0 -1.2964583,-0.8995834 -2.3283333,-2.06375 -3.095625,-3.4395834 -0.079375,-0.15875 -0.10583334,-0.3175 -0.10583334,-0.47625 0,-1.031875 0.0264583,-2.06375 0,-3.095625 C 0.78095583,0.60854167 1.3630392,0.50270833 1.8657475,0.37041667 2.7388725,0.15875 3.5061641,0 4.3792891,0 c 0.8202084,0 2.0372917,0.29104167 2.4870834,0.42333333 0.3439583,0.10583334 0.714375,0.238125 0.7672916,0.58208337 0.026458,0.2910416 0,0.5820833 0.026458,0.873125 0,0.3175 0,0.635 0,0.9525 0,0 0,0 4e-7,0 z"
       id="path4"
       style="stroke-width:0.264583" />
  </g>
</svg>
