<svg version="1" xmlns="http://www.w3.org/2000/svg" width="1000" height="1000" viewBox="0 0 750.000000 750.000000"><path d="M339.5 58.5c-52.1 5.7-101.1 23.4-143.5 51.7-18.6 12.4-20.8 14.2-19.5 16.2.6.8 13.4 16.8 28.5 35.5 24.3 30 30 36.4 30 33.3 0-.4 1.5-1.6 3.3-2.7 1.7-1 4-2.6 5-3.5.9-.9 3-2.3 4.5-3.1 1.5-.7 4-2.2 5.7-3.4 5.2-3.5 23.4-13 30-15.5 1.1-.4 3.1-1.2 4.5-1.8 2.3-.9 5.7-2.2 7-2.7.3-.1 1.8-.7 3.4-1.4 1.6-.6 3.6-1.3 4.5-1.4.9-.1 2.2-.6 2.9-1 .6-.5 1.2-.6 1.2-.3s1.2.1 2.8-.5c2.7-1.1 4.6-1.6 9.2-2.5 1.4-.3 3.3-.7 4.2-1 3.2-1 5.8-1.4 21.8-3.8 14.4-2.2 49.9-1.5 65.5 1.3 13.2 2.3 14 2.4 20.5 4 2.5.7 5.2 1.3 6.1 1.5 1.9.5 16.5 5.5 19.7 6.7 1.2.5 3.2 1.3 4.5 1.8 3.9 1.6 27.1 13.2 30.2 15.2 1.7 1.1 3.8 2.2 4.8 2.5.9.4 1.7.9 1.7 1.3 0 .3 1.3 1.2 2.8 1.9 1.6.6 3.7 2 4.8 3 1.1.9 3.5 2.8 5.3 4.1 2.8 1.9 3.5 2.1 4.6 1 2.4-2.5 56.5-69.4 56.5-69.9 0-.8-20.8-15.2-30.5-21.1-41.7-25.5-85.4-40.1-135.2-45.4-16.8-1.8-50.3-1.8-66.8 0z"/><path d="M150.6 146.1c-9 8.3-27 28.9-36.1 41.4-72.3 99.2-81.4 230.3-23.3 337.3C155.9 644.1 288.5 709.6 423.5 689c125.9-19.2 229.4-112.7 260.8-235.5 4.2-16.4 7.2-33.3 8.8-50 1.7-17.4.6-57.4-1.9-74-10.6-68.5-39.6-126.7-88-176.7-6.9-7-13-12.8-13.6-12.7-.9 0-53.3 63.7-57 69.3-.7 1.1 1.3 3.9 8.1 11 33.4 35.3 53.4 77.5 60.4 127.6 1.8 12.7 1.5 43.2-.5 57.5-3.5 24.4-11.6 49.7-22.9 71.8l-5 9.9-7.6-7.4c-4.2-4.1-25.1-24.3-46.6-44.8-21.4-20.5-46.4-44.6-55.4-53.4l-16.5-16.1-28.9-65c-15.8-35.8-29.3-65.4-29.8-66-.5-.5-.9 37.4-.9 100.1v101l61.8 59.3c33.9 32.6 61.8 59.6 62 60 .1.5-3.5 3.3-8 6.3-26.7 17.9-54.7 29.3-86.7 35.4-11.2 2.2-17.4 2.7-35.7 3.1-14 .4-26 .1-32.5-.7-26-2.9-52.2-10.6-75.4-22-13.8-6.8-35.5-20.1-35.5-21.8 0-.7 100.7-98.2 119.6-115.8l4.4-4.1V334.7c0-55.4-.4-100.7-.8-100.7s-13.9 29.6-30 65.8l-29.3 65.9-23.7 22.9c-13 12.6-41.3 39.9-62.9 60.7L175.2 487l-2.6-4.4c-7.3-12.5-16.1-34.8-20.5-51.9-4.2-16-6.1-29.8-6.8-48.2-2.2-61.5 21-120.8 64.6-165.3 5.4-5.5 6-6.5 4.9-8.1-4.2-5.8-56.1-69.1-56.8-69.1-.4 0-3.7 2.8-7.4 6.1z"/></svg>